<?xml version="1.0" encoding="utf-8"?>
<!-- Generator: Adobe Illustrator 16.0.0, SVG Export Plug-In . SVG Version: 6.00 Build 0)  -->
<!DOCTYPE svg PUBLIC "-//W3C//DTD SVG 1.1//EN" "http://www.w3.org/Graphics/SVG/1.1/DTD/svg11.dtd">
<svg version="1.1" id="Layer_1" xmlns="http://www.w3.org/2000/svg" xmlns:xlink="http://www.w3.org/1999/xlink" x="0px" y="0px"
	 width="14px" height="15px" viewBox="0 0 14 15" enable-background="new 0 0 14 15" xml:space="preserve">
<path fill="#666666" d="M7,0.583c-2.409,0-4.375,1.966-4.375,4.375c0,1.506,0.769,2.844,1.934,3.634
	C2.33,9.547,0.75,11.76,0.75,14.333H2c0-2.769,2.231-5,5-5s5,2.231,5,5h1.25c0-2.573-1.58-4.784-3.809-5.742
	c0.594-0.401,1.082-0.942,1.418-1.576c0.338-0.633,0.515-1.339,0.516-2.057C11.375,2.549,9.409,0.583,7,0.583z M7,1.833
	c1.732,0,3.125,1.392,3.125,3.125c0,1.733-1.393,3.125-3.125,3.125c-1.733,0-3.125-1.392-3.125-3.125
	C3.875,3.225,5.267,1.833,7,1.833z"/>
</svg>
