<?xml version="1.0" encoding="utf-8"?>
<!-- Generator: Adobe Illustrator 16.0.0, SVG Export Plug-In . SVG Version: 6.00 Build 0)  -->
<!DOCTYPE svg PUBLIC "-//W3C//DTD SVG 1.1//EN" "http://www.w3.org/Graphics/SVG/1.1/DTD/svg11.dtd">
<svg version="1.1" id="Layer_1" xmlns="http://www.w3.org/2000/svg" xmlns:xlink="http://www.w3.org/1999/xlink" x="0px" y="0px"
	 width="16px" height="28px" viewBox="0 0 16 28" enable-background="new 0 0 16 28" xml:space="preserve">
<path fill="#666666" d="M12.2,14L0.774,2.128c-0.206-0.208-0.321-0.49-0.321-0.783c0-0.293,0.115-0.575,0.321-0.783
	c0.101-0.103,0.222-0.185,0.355-0.24c0.133-0.056,0.276-0.084,0.42-0.084c0.144,0,0.287,0.029,0.42,0.084
	c0.133,0.056,0.254,0.138,0.355,0.24l12.529,12.653c0.205,0.209,0.32,0.49,0.32,0.783s-0.115,0.575-0.32,0.784L2.325,27.434
	c-0.101,0.104-0.222,0.185-0.355,0.24c-0.133,0.056-0.276,0.084-0.42,0.084c-0.145,0-0.287-0.028-0.42-0.084
	c-0.133-0.056-0.254-0.137-0.355-0.24c-0.206-0.209-0.321-0.49-0.321-0.783s0.115-0.574,0.321-0.783L12.2,14z"/>
</svg>
