<?xml version="1.0" encoding="utf-8"?>
<!-- Generator: Adobe Illustrator 16.0.0, SVG Export Plug-In . SVG Version: 6.00 Build 0)  -->
<!DOCTYPE svg PUBLIC "-//W3C//DTD SVG 1.1//EN" "http://www.w3.org/Graphics/SVG/1.1/DTD/svg11.dtd">
<svg version="1.1" id="Layer_1" xmlns="http://www.w3.org/2000/svg" xmlns:xlink="http://www.w3.org/1999/xlink" x="0px" y="0px"
	 width="16px" height="15px" viewBox="0 0 16 15" enable-background="new 0 0 16 15" xml:space="preserve">
<path fill="none" stroke="#666666" stroke-linecap="round" stroke-linejoin="round" d="M6.393,14.208
	c0.355,0,0.643-0.288,0.643-0.643s-0.288-0.644-0.643-0.644c-0.355,0-0.643,0.289-0.643,0.644S6.038,14.208,6.393,14.208z"/>
<path fill="none" stroke="#666666" stroke-linecap="round" stroke-linejoin="round" d="M13.464,14.208
	c0.355,0,0.644-0.288,0.644-0.643s-0.288-0.644-0.644-0.644c-0.354,0-0.643,0.289-0.643,0.644S13.109,14.208,13.464,14.208z"/>
<path fill="none" stroke="#666666" stroke-linecap="round" stroke-linejoin="round" d="M1.25,0.708h2.571l1.723,8.608
	c0.059,0.295,0.22,0.562,0.455,0.75c0.235,0.189,0.529,0.291,0.831,0.285h6.248c0.303,0.006,0.596-0.096,0.831-0.285
	c0.235-0.188,0.396-0.455,0.455-0.75l1.028-5.394H4.464"/>
</svg>
