<?xml version="1.0" encoding="utf-8"?>
<!-- Generator: Adobe Illustrator 16.0.0, SVG Export Plug-In . SVG Version: 6.00 Build 0)  -->
<!DOCTYPE svg PUBLIC "-//W3C//DTD SVG 1.1//EN" "http://www.w3.org/Graphics/SVG/1.1/DTD/svg11.dtd">
<svg version="1.1" id="Layer_1" xmlns="http://www.w3.org/2000/svg" xmlns:xlink="http://www.w3.org/1999/xlink" x="0px" y="0px"
	 width="15px" height="14px" viewBox="0 0 15 14" enable-background="new 0 0 15 14" xml:space="preserve">
<path fill="#666666" d="M7.5,0.405C3.808,0.405,0.833,3.347,0.833,7c0,3.652,2.974,6.596,6.667,6.596S14.166,10.652,14.166,7
	c0-0.709-0.096-1.417-0.352-2.077L12.98,5.732C13.084,6.138,13.142,6.544,13.142,7c0,3.096-2.512,5.58-5.641,5.58
	S1.859,10.096,1.859,7S4.371,1.419,7.5,1.419c1.539,0,2.92,0.606,3.895,1.57l0.721-0.713C10.936,1.108,9.295,0.405,7.5,0.405z
	 M13.285,2.577L7.5,8.301L5.305,6.128L4.567,6.857l2.564,2.537L7.5,9.742l0.369-0.348l6.154-6.088L13.285,2.577z"/>
</svg>
