<?xml version="1.0" encoding="utf-8"?>
<!-- Generator: Adobe Illustrator 16.0.0, SVG Export Plug-In . SVG Version: 6.00 Build 0)  -->
<!DOCTYPE svg PUBLIC "-//W3C//DTD SVG 1.1//EN" "http://www.w3.org/Graphics/SVG/1.1/DTD/svg11.dtd">
<svg version="1.1" id="Layer_1" xmlns="http://www.w3.org/2000/svg" xmlns:xlink="http://www.w3.org/1999/xlink" x="0px" y="0px"
	 width="16px" height="14px" viewBox="0 0 16 14" enable-background="new 0 0 16 14" xml:space="preserve">
<path fill="#666666" d="M8,1.711C7.222,0.995,6.203,0.598,5.146,0.598c-0.56,0-1.114,0.111-1.63,0.327
	C3,1.141,2.531,1.456,2.137,1.854c-1.681,1.688-1.68,4.328,0.001,6.009L7.375,13.1C7.497,13.313,7.731,13.451,8,13.451
	c0.111-0.002,0.219-0.028,0.318-0.079c0.098-0.051,0.183-0.124,0.249-0.214l5.296-5.296c1.681-1.682,1.681-4.321-0.001-6.012
	c-0.395-0.396-0.863-0.711-1.379-0.926s-1.068-0.326-1.628-0.326C9.797,0.598,8.778,0.995,8,1.711z M12.851,2.861
	c1.116,1.122,1.117,2.875,0.002,3.991L8,11.704L3.148,6.852C2.032,5.736,2.033,3.983,3.146,2.864c0.543-0.54,1.253-0.837,2-0.837
	c0.746,0,1.454,0.297,1.992,0.836l0.357,0.357C7.562,3.286,7.64,3.338,7.727,3.375C7.813,3.41,7.906,3.429,8,3.429
	S8.187,3.41,8.273,3.375C8.36,3.338,8.439,3.286,8.505,3.219l0.357-0.357C9.942,1.784,11.772,1.787,12.851,2.861z"/>
</svg>
