<?xml version="1.0" encoding="utf-8"?>
<!-- Generator: Adobe Illustrator 16.0.0, SVG Export Plug-In . SVG Version: 6.00 Build 0)  -->
<!DOCTYPE svg PUBLIC "-//W3C//DTD SVG 1.1//EN" "http://www.w3.org/Graphics/SVG/1.1/DTD/svg11.dtd">
<svg version="1.1" id="Layer_1" xmlns="http://www.w3.org/2000/svg" xmlns:xlink="http://www.w3.org/1999/xlink" x="0px" y="0px"
	 width="14px" height="14px" viewBox="0 0 14 14" enable-background="new 0 0 14 14" xml:space="preserve">
<path fill="#666666" d="M11.74,2.261c-0.528-0.524-1.227-0.816-1.963-0.816H4.222c-0.736,0-1.438,0.288-1.962,0.816
	S1.444,3.486,1.444,4.222v5.555c0,0.736,0.288,1.438,0.816,1.963c0.528,0.523,1.226,0.815,1.962,0.815h5.555
	c0.736,0,1.438-0.288,1.963-0.815c0.523-0.528,0.815-1.227,0.815-1.963V4.222C12.556,3.486,12.268,2.785,11.74,2.261z M4.222,0.333
	h5.555c2.139,0,3.889,1.75,3.889,3.889v5.555c0,2.14-1.75,3.89-3.889,3.89H4.222c-2.139,0-3.889-1.75-3.889-3.89V4.222
	C0.333,2.083,2.083,0.333,4.222,0.333z M9.777,3.389c0,0.462,0.372,0.833,0.834,0.833c0.458,0,0.833-0.371,0.833-0.833
	s-0.375-0.833-0.833-0.833C10.149,2.556,9.777,2.927,9.777,3.389z M9.223,7c0-1.226-0.997-2.222-2.223-2.222S4.778,5.774,4.778,7
	c0,1.227,0.997,2.223,2.222,2.223S9.223,8.227,9.223,7z M3.667,7C3.667,5.16,5.16,3.667,7,3.667c1.84,0,3.334,1.493,3.334,3.333
	c0,1.84-1.494,3.334-3.334,3.334C5.16,10.334,3.667,8.84,3.667,7z"/>
</svg>
