<?xml version="1.0" encoding="utf-8"?>
<!-- Generator: Adobe Illustrator 16.0.0, SVG Export Plug-In . SVG Version: 6.00 Build 0)  -->
<!DOCTYPE svg PUBLIC "-//W3C//DTD SVG 1.1//EN" "http://www.w3.org/Graphics/SVG/1.1/DTD/svg11.dtd">
<svg version="1.1" id="Layer_1" xmlns="http://www.w3.org/2000/svg" xmlns:xlink="http://www.w3.org/1999/xlink" x="0px" y="0px"
	 width="24px" height="24px" viewBox="0 0 24 24" enable-background="new 0 0 24 24" xml:space="preserve">
<path fill="#666666" d="M12,2C6.477,2,2,6.477,2,12c0,4.236,2.636,7.855,6.356,9.313c-0.087-0.791-0.167-2.006,0.035-2.869
	c0.182-0.779,1.172-4.971,1.172-4.971s-0.299-0.599-0.299-1.484c0-1.391,0.806-2.428,1.809-2.428c0.853,0,1.265,0.641,1.265,1.408
	c0,0.858-0.546,2.14-0.828,3.329c-0.236,0.996,0.499,1.808,1.481,1.808c1.776,0,3.143-1.875,3.143-4.58
	c0-2.394-1.72-4.068-4.177-4.068c-2.845,0-4.515,2.134-4.515,4.34c0,0.858,0.331,1.781,0.744,2.282
	c0.082,0.1,0.093,0.186,0.069,0.287c-0.076,0.316-0.244,0.994-0.277,1.134c-0.043,0.183-0.145,0.222-0.334,0.133
	c-1.249-0.581-2.03-2.407-2.03-3.874c0-3.154,2.292-6.052,6.608-6.052c3.469,0,6.165,2.472,6.165,5.776
	c0,3.448-2.173,6.22-5.188,6.22c-1.013,0-1.966-0.526-2.292-1.147c0,0-0.502,1.908-0.623,2.377
	c-0.226,0.869-0.835,1.959-1.243,2.623C9.975,21.844,10.969,22,12,22c5.521,0,10-4.479,10-10C22,6.478,17.523,2,12,2z"/>
</svg>
