<?xml version="1.0" encoding="utf-8"?>
<!-- Generator: Adobe Illustrator 16.0.0, SVG Export Plug-In . SVG Version: 6.00 Build 0)  -->
<!DOCTYPE svg PUBLIC "-//W3C//DTD SVG 1.1//EN" "http://www.w3.org/Graphics/SVG/1.1/DTD/svg11.dtd">
<svg version="1.1" id="Layer_1" xmlns="http://www.w3.org/2000/svg" xmlns:xlink="http://www.w3.org/1999/xlink" x="0px" y="0px"
	 width="15px" height="16px" viewBox="0 0 15 16" enable-background="new 0 0 15 16" xml:space="preserve">
<path fill="#666666" d="M12.775,13.548l-1.317,0.03l-0.628,1.031l-1.327-2.52c0.464-0.271,0.818-0.492,1.066-0.662
	c0.206-0.141,0.46-0.331,0.767-0.572L12.775,13.548z M11.581,9.638c-0.641,0.531-1.127,0.911-1.459,1.138
	c-0.331,0.229-0.89,0.564-1.673,1.008l1.983,3.77c0.108,0.207,0.364,0.287,0.571,0.178c0.066-0.035,0.124-0.089,0.164-0.154
	l0.74-1.217l1.483-0.035c0.233-0.006,0.419-0.199,0.413-0.432c-0.002-0.066-0.02-0.131-0.051-0.189L11.581,9.638z"/>
<path fill="#666666" d="M1.564,13.548l1.317,0.03l0.628,1.031l1.327-2.52c-0.464-0.271-0.818-0.492-1.066-0.662
	c-0.206-0.141-0.46-0.331-0.766-0.572L1.564,13.548z M2.758,9.638c0.641,0.531,1.127,0.911,1.459,1.138
	c0.332,0.229,0.89,0.564,1.673,1.008l-1.984,3.77C3.797,15.76,3.542,15.84,3.335,15.73c-0.067-0.035-0.124-0.089-0.164-0.154
	L2.43,14.359l-1.483-0.035c-0.233-0.006-0.418-0.199-0.413-0.432c0.001-0.066,0.019-0.131,0.05-0.189L2.758,9.638z"/>
<path fill="#666666" d="M7.178,12.67c-3.198,0-5.789-2.623-5.789-5.856s2.59-5.856,5.789-5.856c3.198,0,5.789,2.623,5.789,5.856
	S10.376,12.67,7.178,12.67z M7.178,11.879c2.759,0,4.998-2.267,4.998-5.065S9.938,1.749,7.178,1.749S2.181,4.016,2.181,6.814
	S4.419,11.879,7.178,11.879z"/>
<path fill="#666666" d="M7.177,8.234l1.259,0.389l0.025-1.335l0.758-1.099l-1.25-0.437L7.177,4.69L6.385,5.752l-1.25,0.437
	l0.758,1.099l0.024,1.335L7.177,8.234z M5.809,9.483C5.534,9.568,5.241,9.414,5.156,9.139C5.142,9.092,5.134,9.043,5.133,8.994
	L5.106,7.541L4.284,6.349C4.12,6.111,4.18,5.786,4.417,5.622c0.039-0.026,0.08-0.048,0.124-0.063l1.354-0.474l0.862-1.156
	c0.173-0.231,0.5-0.279,0.731-0.106c0.041,0.03,0.076,0.066,0.106,0.106l0.862,1.156l1.355,0.474
	c0.271,0.095,0.415,0.393,0.32,0.665c-0.016,0.044-0.037,0.086-0.063,0.125L9.246,7.541L9.221,8.994
	C9.215,9.282,8.977,9.512,8.688,9.506c-0.049,0-0.098-0.008-0.145-0.022L7.177,9.062L5.809,9.483z"/>
</svg>
