<?xml version="1.0" encoding="utf-8"?>
<!-- Generator: Adobe Illustrator 16.0.0, SVG Export Plug-In . SVG Version: 6.00 Build 0)  -->
<!DOCTYPE svg PUBLIC "-//W3C//DTD SVG 1.1//EN" "http://www.w3.org/Graphics/SVG/1.1/DTD/svg11.dtd">
<svg version="1.1" id="Layer_1" xmlns="http://www.w3.org/2000/svg" xmlns:xlink="http://www.w3.org/1999/xlink" x="0px" y="0px"
	 width="16px" height="15px" viewBox="0 0 16 15" enable-background="new 0 0 16 15" xml:space="preserve">
<path fill="none" stroke="#666666" stroke-linecap="round" stroke-linejoin="round" d="M14.75,14.208l-4.5-4.5L14.75,14.208z
	 M11.75,5.958c0,0.689-0.136,1.373-0.399,2.009c-0.265,0.636-0.651,1.216-1.138,1.703c-0.488,0.488-1.066,0.875-1.703,1.139
	c-0.638,0.264-1.32,0.399-2.01,0.399s-1.372-0.136-2.009-0.399c-0.637-0.264-1.215-0.65-1.703-1.139
	C2.3,9.184,1.914,8.604,1.649,7.967C1.386,7.331,1.25,6.647,1.25,5.958c0-1.392,0.553-2.728,1.538-3.712
	C3.772,1.261,5.107,0.708,6.5,0.708s2.728,0.553,3.713,1.538C11.197,3.23,11.75,4.566,11.75,5.958z"/>
</svg>
