<?xml version="1.0" encoding="utf-8"?>
<!-- Generator: Adobe Illustrator 16.0.0, SVG Export Plug-In . SVG Version: 6.00 Build 0)  -->
<!DOCTYPE svg PUBLIC "-//W3C//DTD SVG 1.1//EN" "http://www.w3.org/Graphics/SVG/1.1/DTD/svg11.dtd">
<svg version="1.1" id="Layer_1" xmlns="http://www.w3.org/2000/svg" xmlns:xlink="http://www.w3.org/1999/xlink" x="0px" y="0px"
	 width="512px" height="512px" viewBox="0 0 512 512" enable-background="new 0 0 512 512" xml:space="preserve">
<path fill="#666666" d="M432.735,112.465c-53.742,0-97.465-43.723-97.465-97.465c0-8.285-6.719-15-15-15h-80.336
	c-8.285,0-15,6.715-15,15v329.367c0,31.594-25.703,57.297-57.301,57.297c-31.594,0-57.297-25.703-57.297-57.297
	c0-31.598,25.703-57.301,57.297-57.301c8.285,0,15-6.715,15-15V191.73c0-8.281-6.715-15-15-15C75.199,176.73,0,251.933,0,344.367
	S75.199,512,167.633,512S335.27,436.801,335.27,344.367V198.574c29.855,15.918,63.074,24.227,97.465,24.227c8.285,0,15-6.715,15-15
	v-80.336C447.735,119.183,441.02,112.465,432.735,112.465z M417.735,192.179c-32.023-2.664-62.434-13.852-88.707-32.75
	c-4.566-3.289-10.59-3.742-15.602-1.172c-5.008,2.563-8.156,7.719-8.156,13.348v172.762C305.27,420.258,243.524,482,167.633,482
	S30,420.258,30,344.367c0-70.824,53.773-129.328,122.633-136.824v50.813c-41.016,7.133-72.297,42.984-72.297,86.012
	c0,48.137,39.16,87.301,87.297,87.301c48.141,0,87.301-39.164,87.301-87.301V30h51.211c6.871,58.32,53.27,104.719,111.59,111.59
	V192.179z"/>
</svg>
