<?xml version="1.0" encoding="utf-8"?>
<!-- Generator: Adobe Illustrator 16.0.0, SVG Export Plug-In . SVG Version: 6.00 Build 0)  -->
<!DOCTYPE svg PUBLIC "-//W3C//DTD SVG 1.1//EN" "http://www.w3.org/Graphics/SVG/1.1/DTD/svg11.dtd">
<svg version="1.1" id="Layer_1" xmlns="http://www.w3.org/2000/svg" xmlns:xlink="http://www.w3.org/1999/xlink" x="0px" y="0px"
	 width="16px" height="12px" viewBox="0 0 16 12" enable-background="new 0 0 16 12" xml:space="preserve">
<path fill="#666666" d="M7.795,3.348l0.031,0.49l-0.512-0.06c-1.863-0.23-3.491-1.01-4.873-2.321l-0.676-0.65l-0.174,0.48
	c-0.369,1.07-0.133,2.201,0.635,2.961c0.409,0.42,0.317,0.48-0.389,0.23c-0.246-0.08-0.46-0.14-0.481-0.11
	c-0.072,0.07,0.174,0.98,0.369,1.341c0.266,0.5,0.809,0.99,1.402,1.281L3.629,7.22L3.036,7.23c-0.573,0-0.594,0.01-0.532,0.22
	C2.708,8.1,3.517,8.791,4.417,9.091l0.635,0.21L4.5,9.621c-0.819,0.46-1.781,0.721-2.743,0.74c-0.461,0.01-0.84,0.05-0.84,0.08
	c0,0.1,1.249,0.66,1.976,0.881c2.181,0.649,4.771,0.369,6.715-0.74c1.382-0.791,2.764-2.361,3.408-3.883
	c0.348-0.81,0.696-2.291,0.696-3c0-0.46,0.03-0.521,0.604-1.071c0.338-0.32,0.654-0.67,0.717-0.77c0.102-0.19,0.092-0.19-0.431-0.02
	c-0.87,0.3-0.993,0.26-0.563-0.19c0.318-0.32,0.697-0.9,0.697-1.07c0-0.03-0.154,0.02-0.328,0.11c-0.185,0.1-0.594,0.25-0.9,0.34
	l-0.553,0.17l-0.502-0.33c-0.276-0.18-0.666-0.38-0.87-0.44c-0.522-0.14-1.321-0.12-1.792,0.04C8.512,0.917,7.703,2.078,7.795,3.348
	z"/>
</svg>
