<?xml version="1.0" encoding="utf-8"?>
<!-- Generator: Adobe Illustrator 16.0.0, SVG Export Plug-In . SVG Version: 6.00 Build 0)  -->
<!DOCTYPE svg PUBLIC "-//W3C//DTD SVG 1.1//EN" "http://www.w3.org/Graphics/SVG/1.1/DTD/svg11.dtd">
<svg version="1.1" id="Layer_1" xmlns="http://www.w3.org/2000/svg" xmlns:xlink="http://www.w3.org/1999/xlink" x="0px" y="0px"
	 width="24px" height="24px" viewBox="0 0 24 24" enable-background="new 0 0 24 24" xml:space="preserve">
<path fill="#666666" d="M21.582,6.186c-0.23-0.86-0.908-1.538-1.768-1.768C18.254,4,12,4,12,4S5.746,4,4.186,4.418
	c-0.86,0.23-1.538,0.908-1.768,1.768C2,7.746,2,12,2,12s0,4.254,0.418,5.814c0.23,0.859,0.908,1.537,1.768,1.768
	C5.746,20,12,20,12,20s6.254,0,7.814-0.418c0.86-0.23,1.537-0.908,1.768-1.768C22,16.254,22,12,22,12S22,7.746,21.582,6.186z
	 M10,14.598V9.402c0-0.385,0.417-0.625,0.75-0.433l4.5,2.598c0.333,0.192,0.333,0.674,0,0.866l-4.5,2.598
	C10.417,15.225,10,14.982,10,14.598z"/>
</svg>
